<svg width="680" height="140" viewBox="0 135 680 140" role="img" xmlns="http://www.w3.org/2000/svg">
  <title>Kafetani — Farm to Table Cafe &amp; Market</title>
  <desc>Logo Kafetani dengan ilustrasi ranting botanis, wordmark serif, dan tagline</desc>

  <!-- LEFT BOTANICAL BRANCH -->
  <g transform="translate(92, 235)">
    <path d="M 0 0 C 10 -30 18 -58 25 -85" fill="none" stroke="#2D5016" stroke-width="1.3" stroke-linecap="round"/>
    <path transform="translate(3,-17) rotate(-58)" d="M 0 0 C -4.5 -8 -4.5 -16 0 -20 C 4.5 -16 4.5 -8 0 0 Z" fill="#4A7C23"/>
    <path transform="translate(7,-19) rotate(28)" d="M 0 0 C -4.5 -8 -4.5 -16 0 -20 C 4.5 -16 4.5 -8 0 0 Z" fill="#2D5016"/>
    <path transform="translate(11,-43) rotate(-65)" d="M 0 0 C -4 -7 -4 -15 0 -18 C 4 -15 4 -7 0 0 Z" fill="#2D5016"/>
    <path transform="translate(17,-46) rotate(20)" d="M 0 0 C -4 -7 -4 -15 0 -18 C 4 -15 4 -7 0 0 Z" fill="#4A7C23"/>
    <path transform="translate(21,-67) rotate(-72)" d="M 0 0 C -3.5 -6 -3.5 -13 0 -16 C 3.5 -13 3.5 -6 0 0 Z" fill="#7BAD45"/>
    <circle cx="25" cy="-85" r="4.5" fill="#C8883A"/>
    <circle cx="29" cy="-79" r="3" fill="#C8883A" opacity="0.65"/>
    <circle cx="20" cy="-80" r="2.5" fill="#C8883A" opacity="0.5"/>
  </g>

  <!-- RIGHT BOTANICAL BRANCH (mirrored) -->
  <g transform="translate(588, 235) scale(-1, 1)">
    <path d="M 0 0 C 10 -30 18 -58 25 -85" fill="none" stroke="#2D5016" stroke-width="1.3" stroke-linecap="round"/>
    <path transform="translate(3,-17) rotate(-58)" d="M 0 0 C -4.5 -8 -4.5 -16 0 -20 C 4.5 -16 4.5 -8 0 0 Z" fill="#4A7C23"/>
    <path transform="translate(7,-19) rotate(28)" d="M 0 0 C -4.5 -8 -4.5 -16 0 -20 C 4.5 -16 4.5 -8 0 0 Z" fill="#2D5016"/>
    <path transform="translate(11,-43) rotate(-65)" d="M 0 0 C -4 -7 -4 -15 0 -18 C 4 -15 4 -7 0 0 Z" fill="#2D5016"/>
    <path transform="translate(17,-46) rotate(20)" d="M 0 0 C -4 -7 -4 -15 0 -18 C 4 -15 4 -7 0 0 Z" fill="#4A7C23"/>
    <path transform="translate(21,-67) rotate(-72)" d="M 0 0 C -3.5 -6 -3.5 -13 0 -16 C 3.5 -13 3.5 -6 0 0 Z" fill="#7BAD45"/>
    <circle cx="25" cy="-85" r="4.5" fill="#C8883A"/>
    <circle cx="29" cy="-79" r="3" fill="#C8883A" opacity="0.65"/>
    <circle cx="20" cy="-80" r="2.5" fill="#C8883A" opacity="0.5"/>
  </g>

  <!-- TOP RULE -->
  <line x1="158" y1="150" x2="308" y2="150" stroke="#6B4C30" stroke-width="0.6"/>
  <path d="M 340 136 C 333 142 331 148 340 151 C 349 148 347 142 340 136 Z" fill="#2D5016"/>
  <path d="M 340 151 C 333 154 331 160 340 163 C 349 160 347 154 340 151 Z" fill="#4A7C23"/>
  <circle cx="340" cy="149" r="2.8" fill="#C8883A"/>
  <line x1="372" y1="150" x2="522" y2="150" stroke="#6B4C30" stroke-width="0.6"/>

  <!-- MAIN WORDMARK -->
  <text
    x="340" y="210"
    text-anchor="middle"
    font-family="Georgia, 'Times New Roman', serif"
    font-size="65"
    font-weight="300"
    fill="#2D5016"
    letter-spacing="4">KAFETANI</text>

  <!-- BOTTOM RULE -->
  <line x1="158" y1="228" x2="310" y2="228" stroke="#6B4C30" stroke-width="0.6"/>
  <polygon points="340,222 347,228 340,234 333,228" fill="#C8883A"/>
  <line x1="370" y1="228" x2="522" y2="228" stroke="#6B4C30" stroke-width="0.6"/>

  <!-- TAGLINE -->
  <text
    x="340" y="254"
    text-anchor="middle"
    font-family="'Helvetica Neue', Arial, sans-serif"
    font-size="11"
    fill="#6B4C30"
    letter-spacing="3.8">FARM TO TABLE · CAFE &amp; MARKET</text>
</svg>
